<svg width="32" height="32" viewBox="0 0 32 32" fill="none" xmlns="http://www.w3.org/2000/svg">
<path d="M4.66666 26.6666C4.13332 26.6666 3.66666 26.4666 3.26666 26.0666C2.86666 25.6666 2.66666 25.1999 2.66666 24.6666V7.33325C2.66666 6.79992 2.86666 6.33325 3.26666 5.93325C3.66666 5.53325 4.13332 5.33325 4.66666 5.33325H27.3333C27.8667 5.33325 28.3333 5.53325 28.7333 5.93325C29.1333 6.33325 29.3333 6.79992 29.3333 7.33325V24.6666C29.3333 25.1999 29.1333 25.6666 28.7333 26.0666C28.3333 26.4666 27.8667 26.6666 27.3333 26.6666H4.66666ZM16 16.5999L4.66666 9.16659V24.6666H27.3333V9.16659L16 16.5999ZM16 14.5999L27.2 7.33325H4.83332L16 14.5999ZM4.66666 9.16659V7.33325V24.6666V9.16659Z" fill="#FA9600"/>
</svg>
