<svg width="32" height="30" viewBox="0 0 32 30" fill="none" xmlns="http://www.w3.org/2000/svg">
<path d="M15.998 0C7.16401 0 9.23295e-06 6.66305 9.23295e-06 14.8825C-0.00360001 18.002 1.05104 21.0436 3.01487 23.5776C4.97871 26.1114 7.75242 28.0095 10.944 29.0035C11.744 29.1406 12.036 28.6811 12.036 28.2864C12.036 27.9325 12.022 26.9968 12.014 25.7554C7.56401 26.654 6.62401 23.7598 6.62401 23.7598C5.89801 22.0403 4.84801 21.5826 4.84801 21.5826C3.39401 20.6599 4.95601 20.6784 4.95601 20.6784C6.56201 20.784 7.40601 22.2126 7.40601 22.2126C8.83401 24.4861 11.152 23.8302 12.064 23.4485C12.208 22.4869 12.622 21.8309 13.08 21.4585C9.52801 21.0824 5.79201 19.8057 5.79201 14.1043C5.79201 12.4793 6.41601 11.1508 7.44001 10.1094C7.27401 9.73331 6.72601 8.21949 7.59601 6.17203C7.59601 6.17203 8.94001 5.7718 11.996 7.69697C13.3015 7.36643 14.6486 7.19819 16.002 7.19668C17.3554 7.19917 18.7025 7.36802 20.008 7.69882C23.062 5.77365 24.404 6.17388 24.404 6.17388C25.276 8.22319 24.728 9.73516 24.564 10.1113C25.59 11.1526 26.208 12.4812 26.208 14.1062C26.208 19.8224 22.468 21.0805 18.904 21.4492C19.478 21.9087 19.99 22.8167 19.99 24.2045C19.99 26.1945 19.97 27.7991 19.97 28.2864C19.97 28.6848 20.258 29.148 21.07 29.0017C24.2585 28.0054 27.0288 26.1065 28.9899 23.5732C30.951 21.0399 32.0039 18 32 14.8825C32 6.66305 24.836 0 15.998 0Z" fill="#FA9600"/>
</svg>
