<svg width="32" height="32" viewBox="0 0 32 32" fill="none" xmlns="http://www.w3.org/2000/svg">
<path d="M16 15.6667C16.6445 15.6667 17.1945 15.439 17.65 14.9834C18.1056 14.5279 18.3333 13.9779 18.3333 13.3334C18.3333 12.689 18.1056 12.139 17.65 11.6834C17.1945 11.2279 16.6445 11.0001 16 11.0001C15.3556 11.0001 14.8056 11.2279 14.35 11.6834C13.8945 12.139 13.6667 12.689 13.6667 13.3334C13.6667 13.9779 13.8945 14.5279 14.35 14.9834C14.8056 15.439 15.3556 15.6667 16 15.6667ZM16 26.7001C18.9556 24.0112 21.1389 21.5723 22.55 19.3834C23.9611 17.1945 24.6667 15.2667 24.6667 13.6001C24.6667 10.9779 23.8278 8.83341 22.15 7.16675C20.4722 5.50008 18.4222 4.66675 16 4.66675C13.5778 4.66675 11.5278 5.50008 9.85001 7.16675C8.17223 8.83341 7.33334 10.9779 7.33334 13.6001C7.33334 15.2667 8.05557 17.1945 9.50001 19.3834C10.9445 21.5723 13.1111 24.0112 16 26.7001ZM16 29.3334C12.4222 26.289 9.75001 23.4612 7.98334 20.8501C6.21668 18.239 5.33334 15.8223 5.33334 13.6001C5.33334 10.2667 6.40557 7.61119 8.55001 5.63341C10.6945 3.65564 13.1778 2.66675 16 2.66675C18.8222 2.66675 21.3056 3.65564 23.45 5.63341C25.5945 7.61119 26.6667 10.2667 26.6667 13.6001C26.6667 15.8223 25.7833 18.239 24.0167 20.8501C22.25 23.4612 19.5778 26.289 16 29.3334Z" fill="#FA9600"/>
</svg>
