<svg width="32" height="32" viewBox="0 0 32 32" fill="none" xmlns="http://www.w3.org/2000/svg">
<g clip-path="url(#clip0_77_252)">
<path d="M16 0C7.16343 0 6.10352e-05 7.16337 6.10352e-05 16C6.10352e-05 24.8366 7.16343 31.9999 16 31.9999C24.8366 31.9999 32.0001 24.8366 32.0001 16C32 7.16337 24.8365 0 16 0ZM11.7312 23.7352H8.21825V12.3859H11.7312V23.7352ZM9.95799 10.8996C8.81069 10.8996 7.88061 9.96191 7.88061 8.80543C7.88061 7.64882 8.81082 6.71121 9.95799 6.71121C11.1052 6.71121 12.0352 7.64882 12.0352 8.80543C12.0353 9.96198 11.1052 10.8996 9.95799 10.8996ZM24.896 23.7352H21.4001V17.7778C21.4001 16.1438 20.7794 15.2317 19.4874 15.2317C18.0813 15.2317 17.3467 16.1816 17.3467 17.7778V23.7352H13.9773V12.3859H17.3467V13.9144C17.3467 13.9144 18.3602 12.0397 20.7667 12.0397C23.1733 12.0397 24.8961 13.5091 24.8961 16.549L24.896 23.7352Z" fill="#FA9600"/>
</g>
<defs>
<clipPath id="clip0_77_252">
<rect width="32" height="32" fill="white"/>
</clipPath>
</defs>
</svg>
