<svg width="32" height="32" viewBox="0 0 32 32" fill="none" xmlns="http://www.w3.org/2000/svg">
<path d="M26.5 28C23.7889 28 21.0944 27.3333 18.4167 26C15.7389 24.6667 13.3333 22.9333 11.2 20.8C9.06667 18.6667 7.33333 16.2611 6 13.5833C4.66667 10.9056 4 8.21111 4 5.5C4 5.07778 4.14444 4.72222 4.43333 4.43333C4.72222 4.14444 5.07778 4 5.5 4H10.1667C10.4778 4 10.75 4.10556 10.9833 4.31667C11.2167 4.52778 11.3667 4.81111 11.4333 5.16667L12.3333 9.36667C12.3778 9.67778 12.3722 9.96111 12.3167 10.2167C12.2611 10.4722 12.1444 10.6889 11.9667 10.8667L8.63333 14.2333C9.87778 16.3 11.2722 18.1 12.8167 19.6333C14.3611 21.1667 16.1111 22.4667 18.0667 23.5333L21.2333 20.2667C21.4556 20.0222 21.7111 19.85 22 19.75C22.2889 19.65 22.5778 19.6333 22.8667 19.7L26.8333 20.5667C27.1667 20.6333 27.4444 20.8 27.6667 21.0667C27.8889 21.3333 28 21.6444 28 22V26.5C28 26.9222 27.8556 27.2778 27.5667 27.5667C27.2778 27.8556 26.9222 28 26.5 28ZM7.63333 12.4L10.3333 9.66667L9.56667 6H6C6 6.86667 6.13333 7.81667 6.4 8.85C6.66667 9.88333 7.07778 11.0667 7.63333 12.4ZM19.9333 24.5C20.8444 24.9222 21.8333 25.2667 22.9 25.5333C23.9667 25.8 25 25.9556 26 26V22.4333L22.5667 21.7333L19.9333 24.5Z" fill="#FA9600"/>
</svg>
