<svg width="104" height="27" viewBox="0 0 104 27" fill="none" xmlns="http://www.w3.org/2000/svg">
<path d="M22.272 3.66399L14.08 26H8.64L0.447998 3.66399H5.248L11.392 21.424L17.504 3.66399H22.272Z" fill="#201E1B"/>
<path d="M27.23 6.15999C26.4407 6.15999 25.7793 5.91466 25.246 5.42399C24.734 4.91199 24.478 4.28265 24.478 3.53599C24.478 2.78932 24.734 2.17065 25.246 1.67999C25.7793 1.16799 26.4407 0.911987 27.23 0.911987C28.0193 0.911987 28.67 1.16799 29.182 1.67999C29.7153 2.17065 29.982 2.78932 29.982 3.53599C29.982 4.28265 29.7153 4.91199 29.182 5.42399C28.67 5.91466 28.0193 6.15999 27.23 6.15999ZM29.438 8.27199V26H24.958V8.27199H29.438Z" fill="#201E1B"/>
<path d="M32.7122 17.136C32.7122 15.3013 33.0856 13.7013 33.8322 12.336C34.5789 10.9493 35.6136 9.88265 36.9362 9.13599C38.2589 8.36799 39.7736 7.98399 41.4802 7.98399C43.6776 7.98399 45.4909 8.53865 46.9202 9.64799C48.3709 10.736 49.3416 12.272 49.8322 14.256H45.0002C44.7442 13.488 44.3069 12.8907 43.6882 12.464C43.0909 12.016 42.3442 11.792 41.4482 11.792C40.1682 11.792 39.1549 12.2613 38.4082 13.2C37.6616 14.1173 37.2882 15.4293 37.2882 17.136C37.2882 18.8213 37.6616 20.1333 38.4082 21.072C39.1549 21.9893 40.1682 22.448 41.4482 22.448C43.2616 22.448 44.4456 21.6373 45.0002 20.016H49.8322C49.3416 21.936 48.3709 23.4613 46.9202 24.592C45.4696 25.7227 43.6562 26.288 41.4802 26.288C39.7736 26.288 38.2589 25.9147 36.9362 25.168C35.6136 24.4 34.5789 23.3333 33.8322 21.968C33.0856 20.5813 32.7122 18.9707 32.7122 17.136Z" fill="#201E1B"/>
<path d="M58.3302 11.952V20.528C58.3302 21.1253 58.4689 21.5627 58.7462 21.84C59.0449 22.096 59.5356 22.224 60.2182 22.224H62.2982V26H59.4822C55.7062 26 53.8182 24.1653 53.8182 20.496V11.952H51.7062V8.27199H53.8182V3.88799H58.3302V8.27199H62.2982V11.952H58.3302Z" fill="#201E1B"/>
<path d="M73.3925 26.288C71.6858 26.288 70.1498 25.9147 68.7845 25.168C67.4192 24.4 66.3418 23.3227 65.5525 21.936C64.7845 20.5493 64.4005 18.9493 64.4005 17.136C64.4005 15.3227 64.7952 13.7227 65.5845 12.336C66.3952 10.9493 67.4938 9.88265 68.8805 9.13599C70.2672 8.36799 71.8138 7.98399 73.5205 7.98399C75.2272 7.98399 76.7738 8.36799 78.1605 9.13599C79.5472 9.88265 80.6352 10.9493 81.4245 12.336C82.2352 13.7227 82.6405 15.3227 82.6405 17.136C82.6405 18.9493 82.2245 20.5493 81.3925 21.936C80.5818 23.3227 79.4725 24.4 78.0645 25.168C76.6778 25.9147 75.1205 26.288 73.3925 26.288ZM73.3925 22.384C74.2032 22.384 74.9605 22.192 75.6645 21.808C76.3898 21.4027 76.9658 20.8053 77.3925 20.016C77.8192 19.2267 78.0325 18.2667 78.0325 17.136C78.0325 15.4507 77.5845 14.16 76.6885 13.264C75.8138 12.3467 74.7365 11.888 73.4565 11.888C72.1765 11.888 71.0992 12.3467 70.2245 13.264C69.3712 14.16 68.9445 15.4507 68.9445 17.136C68.9445 18.8213 69.3605 20.1227 70.1925 21.04C71.0458 21.936 72.1125 22.384 73.3925 22.384Z" fill="#201E1B"/>
<path d="M90.4067 11.024C90.9827 10.0853 91.7294 9.34932 92.6468 8.81599C93.5854 8.28265 94.6521 8.01599 95.8467 8.01599V12.72H94.6628C93.2548 12.72 92.1881 13.0507 91.4627 13.712C90.7587 14.3733 90.4067 15.5253 90.4067 17.168V26H85.9268V8.27199H90.4067V11.024Z" fill="#201E1B"/>
<path d="M100.848 26.224C100.038 26.224 99.3656 25.9787 98.8322 25.488C98.3202 24.976 98.0642 24.3467 98.0642 23.6C98.0642 22.8533 98.3202 22.2347 98.8322 21.744C99.3656 21.232 100.038 20.976 100.848 20.976C101.638 20.976 102.288 21.232 102.8 21.744C103.312 22.2347 103.568 22.8533 103.568 23.6C103.568 24.3467 103.312 24.976 102.8 25.488C102.288 25.9787 101.638 26.224 100.848 26.224Z" fill="#FA9600"/>
</svg>
