<svg width="14" height="6" viewBox="0 0 14 6" fill="none" xmlns="http://www.w3.org/2000/svg">
<g clip-path="url(#clip0_77_283)">
<path fill-rule="evenodd" clip-rule="evenodd" d="M6.44512 0.16815C6.60945 0.0585107 6.80258 0 7.00012 0C7.19767 0 7.39079 0.0585107 7.55512 0.16815L13.5551 4.16815C13.7758 4.31535 13.9289 4.54417 13.9809 4.80428C14.0328 5.06439 13.9793 5.33449 13.8321 5.55515C13.6849 5.77581 13.4561 5.92896 13.196 5.98091C12.9359 6.03285 12.6658 5.97934 12.4451 5.83215L7.00012 2.20215L1.55512 5.83215C1.44586 5.90503 1.32332 5.95568 1.19448 5.98121C1.06565 6.00673 0.933051 6.00663 0.804256 5.98091C0.544143 5.92896 0.31532 5.77581 0.168124 5.55515C0.0952409 5.44589 0.0445912 5.32334 0.0190674 5.19451C-0.00645637 5.06568 -0.00635444 4.93308 0.0193674 4.80428C0.071315 4.54417 0.224464 4.31535 0.445124 4.16815L6.44512 0.16815Z" fill="#B2B2B2"/>
</g>
<defs>
<clipPath id="clip0_77_283">
<rect width="14" height="6" fill="white"/>
</clipPath>
</defs>
</svg>
