<svg width="14" height="6" viewBox="0 0 14 6" fill="none" xmlns="http://www.w3.org/2000/svg">
<g clip-path="url(#clip0_77_283)">
<path fill-rule="evenodd" clip-rule="evenodd" d="M7.55488 5.83185C7.39055 5.94149 7.19742 6 6.99988 6C6.80233 6 6.60921 5.94149 6.44488 5.83185L0.444875 1.83185C0.224215 1.68465 0.0710659 1.45583 0.0191183 1.19572C-0.0328293 0.935606 0.0206804 0.665511 0.167875 0.44485C0.31507 0.22419 0.543894 0.0710406 0.804007 0.019093C1.06412 -0.0328546 1.33422 0.0206552 1.55488 0.16785L6.99988 3.79785L12.4449 0.16785C12.5541 0.0949669 12.6767 0.0443168 12.8055 0.0187931C12.9343 -0.00673056 13.0669 -0.00662899 13.1957 0.019093C13.4559 0.0710406 13.6847 0.22419 13.8319 0.44485C13.9048 0.55411 13.9554 0.676655 13.9809 0.80549C14.0065 0.934324 14.0064 1.06692 13.9806 1.19572C13.9287 1.45583 13.7755 1.68465 13.5549 1.83185L7.55488 5.83185Z" fill="#B2B2B2"/>
</g>
<defs>
<clipPath id="clip0_77_283">
<rect width="14" height="6" fill="white" transform="translate(14 6) rotate(-180)"/>
</clipPath>
</defs>
</svg>
